# xmcd
#
# Track frame offsets: 
#        150
#        18015
#        24990
#        43749
#        59964
#        74906
#        92469
#        112377
#        128579
#        145644
#        166811
#        187465
#        203717
#        218758
#        238461
#        253772
#        270720
#        288611
#        309015
#
# Disc length: 4311 seconds
#
# Revision: 0
# Processed by: cddbd v1.5.2PL0 Copyright (c) Steve Scherf et al.
# Submitted via: ExactAudioCopy v0.95b3
#
DISCID=2810d513
DTITLE=Various Artist - Ladies About Love Vol.1
DYEAR=2001
DGENRE=Ballad
TTITLE0=Cassandra Willson - You don't know what love is
TTITLE1=Alicia Keys - Never felt this way (interlude)
TTITLE2=Alicia Keys - Butterflyz
TTITLE3=Alicia Keys - Fallin'
TTITLE4=Shania Twain - You got the way with me
TTITLE5=Mariah Carey - My all
TTITLE6=Anastacia - You'll never be alone
TTITLE7=Rebecca del Rio - Jorrando
TTITLE8=K.D. Lang - Barefoot (unplugged)
TTITLE9=Tracy Chapman - Be careful of my heart
TTITLE10=Toni Braxton - Unbreak my heart
TTITLE11=Mariah Carey - Without you
TTITLE12=Gabrielle - Out of reach
TTITLE13=Alicia Keys - Goodbye
TTITLE14=Gabrielle - If I walked away
TTITLE15=Tracy Chapman - This time
TTITLE16=Gabrielle - Should I stay
TTITLE17=K.D. Lang - Crying (unplugged, remastered)
TTITLE18=Tracy Chapman - For you
EXTD=
EXTT0=
EXTT1=
EXTT2=
EXTT3=
EXTT4=
EXTT5=
EXTT6=
EXTT7=
EXTT8=
EXTT9=
EXTT10=
EXTT11=
EXTT12=
EXTT13=
EXTT14=
EXTT15=
EXTT16=
EXTT17=
EXTT18=
PLAYORDER=
